<?xml version="1.0" encoding="UTF-8" standalone="yes"?><svg xmlns="http://www.w3.org/2000/svg" xmlns:xlink="http://www.w3.org/1999/xlink" width="979px" height="295px" viewBox="0 0 979 295" version="1.1" style="zoom: 1;"><!-- Generator: Sketch 52.6 (67491) - http://www.bohemiancoding.com/sketch --><title>Untitled 6</title><desc>Created with Sketch.</desc><defs><polygon id="path-1" points="394.425 95.95 335.575 95.95 335.575 59.65 496.45 59.65 496.45 95.95 437.6 95.95 437.6 256 394.425 256"></polygon><path d="M558.05,169.65 C556.216657,159.749951 552.962523,152.233359 548.2875,147.1 C543.612477,141.966641 536.508381,139.4 526.975,139.4 C520.741636,139.4 515.562521,140.454156 511.4375,142.5625 C507.312479,144.670844 504.012512,147.283318 501.5375,150.4 C499.062488,153.516682 497.320838,156.816649 496.3125,160.3 C495.304162,163.783351 494.708334,166.899986 494.525,169.65 L558.05,169.65 Z M494.525,194.4 C495.075003,207.050063 498.283304,216.216638 504.15,221.9 C510.016696,227.583362 518.449945,230.425 529.45,230.425 C537.333373,230.425 544.116638,228.454186 549.8,224.5125 C555.483362,220.570814 558.96666,216.400022 560.25,212 L594.625,212 C589.124973,229.050085 580.691723,241.24163 569.325,248.575 C557.958277,255.90837 544.208414,259.575 528.075,259.575 C516.891611,259.575 506.808378,257.787518 497.825,254.2125 C488.841622,250.637482 481.233364,245.550033 475,238.95 C468.766636,232.349967 463.954184,224.466712 460.5625,215.3 C457.170816,206.133287 455.475,196.050055 455.475,185.05 C455.475,174.416613 457.216649,164.516712 460.7,155.35 C464.183351,146.183288 469.133301,138.2542 475.55,131.5625 C481.966699,124.8708 489.620789,119.600019 498.5125,115.75 C507.404211,111.899981 517.258279,109.975 528.075,109.975 C540.17506,109.975 550.716622,112.312477 559.7,116.9875 C568.683378,121.662523 576.062471,127.941627 581.8375,135.825 C587.612529,143.708373 591.78332,152.691616 594.35,162.775 C596.916679,172.858384 597.833337,183.399945 597.1,194.4 L494.525,194.4 Z M613.3,59.65 L652.35,59.65 L652.35,256 L613.3,256 L613.3,59.65 Z M676.25,59.65 L715.3,59.65 L715.3,256 L676.25,256 L676.25,59.65 Z M832.8,169.65 C830.966657,159.749951 827.712523,152.233359 823.0375,147.1 C818.362477,141.966641 811.258381,139.4 801.725,139.4 C795.491636,139.4 790.312521,140.454156 786.1875,142.5625 C782.062479,144.670844 778.762512,147.283318 776.2875,150.4 C773.812488,153.516682 772.070838,156.816649 771.0625,160.3 C770.054162,163.783351 769.458334,166.899986 769.275,169.65 L832.8,169.65 Z M769.275,194.4 C769.825003,207.050063 773.033304,216.216638 778.9,221.9 C784.766696,227.583362 793.199945,230.425 804.2,230.425 C812.083373,230.425 818.866638,228.454186 824.55,224.5125 C830.233362,220.570814 833.71666,216.400022 835,212 L869.375,212 C863.874973,229.050085 855.441723,241.24163 844.075,248.575 C832.708277,255.90837 818.958414,259.575 802.825,259.575 C791.641611,259.575 781.558378,257.787518 772.575,254.2125 C763.591622,250.637482 755.983364,245.550033 749.75,238.95 C743.516636,232.349967 738.704184,224.466712 735.3125,215.3 C731.920816,206.133287 730.225,196.050055 730.225,185.05 C730.225,174.416613 731.966649,164.516712 735.45,155.35 C738.933351,146.183288 743.883301,138.2542 750.3,131.5625 C756.716699,124.8708 764.370789,119.600019 773.2625,115.75 C782.154211,111.899981 792.008279,109.975 802.825,109.975 C814.92506,109.975 825.466622,112.312477 834.45,116.9875 C843.433378,121.662523 850.812471,127.941627 856.5875,135.825 C862.362529,143.708373 866.53332,152.691616 869.1,162.775 C871.66668,172.858384 872.583337,183.399945 871.85,194.4 L769.275,194.4 Z M886.95,113.825 L924.075,113.825 L924.075,140.225 L924.625,140.225 C926.458343,135.824978 928.933318,131.745852 932.05,127.9875 C935.166682,124.229148 938.741647,121.020847 942.775,118.3625 C946.808354,115.704153 951.116644,113.641674 955.7,112.175 C960.283356,110.708326 965.049975,109.975 970,109.975 C972.566679,109.975 975.408318,110.433329 978.525,111.35 L978.525,147.65 C976.691658,147.283331 974.491679,146.962501 971.925,146.6875 C969.358321,146.412499 966.883345,146.275 964.5,146.275 C957.349964,146.275 951.300025,147.466655 946.35,149.85 C941.399975,152.233345 937.412515,155.487479 934.3875,159.6125 C931.362485,163.737521 929.20834,168.549973 927.925,174.05 C926.64166,179.550027 926,185.508301 926,191.925 L926,256 L886.95,256 L886.95,113.825 Z" id="path-2"></path></defs><g id="Page-1" stroke="none" stroke-width="1" fill="none" fill-rule="evenodd"><g id="logo"><g id="T"><use fill="#000000" xlink:href="#path-1"></use><use fill-opacity="0.95" fill="#FFFFFF" xlink:href="#path-1"></use></g><g id="eller"><use fill="#000000" xlink:href="#path-2"></use><use fill-opacity="0.95" fill="#FFFFFF" xlink:href="#path-2"></use></g><g id="Group"><path d="M97.9321888,208.257335 L217.503144,277.291658 C196.644362,288.586614 172.755848,295 147.369407,295 C130.028688,295 113.386878,292.007612 97.9321888,286.511045 L97.9321888,208.257335 Z" id="Path" fill="#7985F2"></path><path d="M1.33850967,168.398531 L72.9321896,133.47996 L72.9321896,274.867114 C34.9328767,252.611168 7.78292586,213.836244 1.33850967,168.398531 Z" id="Path" fill="#F279D2"></path><path d="M-5.68434189e-14,141.236318 C1.78649474,98.4734722 21.7797601,60.4153887 52.4302777,34.6115854 L124.42834,76.1796863 L75.6781973,104.325595 L-5.68434189e-14,141.236318 " id="Path" fill="#F27979"></path><path d="M147.369407,0 C165.985591,0 183.796271,3.44877714 200.19739,9.74227503 L200.19739,91.0574538 L75.148543,18.8604685 C96.4947687,6.85051236 121.132076,0 147.369407,0 Z" id="Path" fill="#FFD780"></path><path d="M293.446475,126.929664 L225.19739,164.76075 L225.19739,22.1804956 C261.506331,44.7774944 287.276874,82.7147319 293.446475,126.929664 Z" id="Path" fill="#91E673"></path><path d="M294.690752,154.823802 C292.58306,197.928225 271.972284,236.171184 240.632954,261.77815 L172.600449,222.499562 L294.690752,154.823802 " id="Path" fill="#79DEF2"></path></g></g></g><rect stroke="#000000" x="497px" height="1px" y="311px" id="rect1" stroke-width="3px" width="1px" fill="#ffffff" transform=""></rect></svg>
